<?xml version="1.0" encoding="iso-8859-1"?>
<!-- Generator: Adobe Illustrator 19.0.0, SVG Export Plug-In . SVG Version: 6.00 Build 0)  -->
<svg version="1.1" id="Layer_1" xmlns="http://www.w3.org/2000/svg" xmlns:xlink="http://www.w3.org/1999/xlink" x="0px" y="0px"
	 viewBox="0 0 512 512" style="enable-background:new 0 0 512 512;" xml:space="preserve">
<g>
	<path style="fill:#DD342E;" d="M61.793,35.31V476.69c0-19.5,15.81-35.31,35.31-35.31h353.103V0H97.103
		C77.603,0,61.793,15.81,61.793,35.31"/>
	<g>
		<path style="fill:#B12621;" d="M97.103,441.379h17.655V0H97.103c-19.5,0-35.31,15.81-35.31,35.31V476.69
			C61.793,457.19,77.603,441.379,97.103,441.379"/>
		<polygon style="fill:#B12621;" points="247.172,88.276 211.862,61.793 176.552,88.276 176.552,0 247.172,0 		"/>
	</g>
	<path style="fill:#EDECDA;" d="M97.103,441.379c-19.5,0-35.31,15.81-35.31,35.31c0,19.5,15.81,35.31,35.31,35.31h353.103v-70.621
		H97.103z"/>
	<path style="fill:#CEC9AE;" d="M406.069,485.517H105.931c-4.882,0-8.828-3.955-8.828-8.828c0-4.873,3.946-8.828,8.828-8.828
		h300.138c4.882,0,8.828,3.955,8.828,8.828C414.897,481.562,410.951,485.517,406.069,485.517"/>
	<path style="fill:#F0C419;" d="M282.483,141.241c0,0,3.805,17.655,35.31,17.655s44.138-17.655,44.138-17.655l17.655,26.483
		c0,0-15.537,16.287-9.975,41.878c0.38,1.721,4.387,14.354,8.148,28.081c7.027,25.697-5.667,72.474-37.994,92.134
		c-0.194,0.124-0.415,0.212-0.618,0.318l-7.486,3.734c0,0-49.178,20.754-49.178,36.89c0-16.137-49.178-36.89-49.178-36.89
		l-7.486-3.734c-0.203-0.106-0.424-0.194-0.618-0.318c-32.327-19.659-45.021-66.436-37.994-92.134
		c3.761-13.727,7.768-26.359,8.148-28.081c5.561-25.591-9.975-41.878-9.975-41.878l17.655-26.483c0,0,12.632,17.655,44.138,17.655
		S282.483,141.241,282.483,141.241"/>
	<polygon style="fill:#FFFFFF;" points="282.533,194.207 299.941,229.473 335.499,229.517 310.693,262.577 317.843,300.138 
		282.533,283.03 247.223,300.138 254.373,262.577 229.568,229.517 265.134,229.473 	"/>
</g>
<g>
</g>
<g>
</g>
<g>
</g>
<g>
</g>
<g>
</g>
<g>
</g>
<g>
</g>
<g>
</g>
<g>
</g>
<g>
</g>
<g>
</g>
<g>
</g>
<g>
</g>
<g>
</g>
<g>
</g>
</svg>
